# Blender v2.79 (sub 0) OBJ File: ''
# www.blender.org
mtllib 128_Triangles.mtl
o Plane
v -1.000000 0.000000 1.000000
v 1.000000 0.000000 1.000000
v -1.000000 0.000000 -1.000000
v 1.000000 0.000000 -1.000000
v -1.000000 0.000000 0.000000
v 0.000000 0.000000 1.000000
v 1.000000 0.000000 0.000000
v 0.000000 0.000000 -1.000000
v 0.000000 0.000000 0.000000
v -1.000000 0.000000 0.500000
v 0.500000 0.000000 1.000000
v 1.000000 0.000000 -0.500000
v -0.500000 0.000000 -1.000000
v 0.500000 0.000000 0.500000
v -1.000000 0.000000 -0.500000
v -0.500000 0.000000 1.000000
v 1.000000 0.000000 0.500000
v 0.500000 0.000000 -1.000000
v -0.500000 0.000000 -0.500000
v 0.000000 0.000000 -0.500000
v 0.500000 0.000000 0.000000
v 0.500000 0.000000 -0.500000
v -0.500000 0.000000 0.500000
v 0.000000 0.000000 0.500000
v -0.500000 0.000000 0.000000
v -1.000000 0.000000 0.750000
v 0.750000 0.000000 1.000000
v 1.000000 0.000000 -0.750000
v -0.750000 0.000000 -1.000000
v 0.750000 0.000000 0.750000
v -1.000000 0.000000 -0.250000
v -0.250000 0.000000 1.000000
v 1.000000 0.000000 0.250000
v 0.250000 0.000000 -1.000000
v -0.250000 0.000000 -0.250000
v 0.000000 0.000000 -0.750000
v 0.750000 0.000000 0.000000
v 0.750000 0.000000 -0.250000
v -0.750000 0.000000 0.250000
v 0.000000 0.000000 0.250000
v -0.250000 0.000000 0.000000
v -1.000000 0.000000 0.250000
v 0.250000 0.000000 1.000000
v 1.000000 0.000000 -0.250000
v -0.250000 0.000000 -1.000000
v 0.250000 0.000000 0.250000
v -1.000000 0.000000 -0.750000
v -0.750000 0.000000 1.000000
v 1.000000 0.000000 0.750000
v 0.750000 0.000000 -1.000000
v -0.750000 0.000000 -0.750000
v 0.000000 0.000000 -0.250000
v 0.250000 0.000000 0.000000
v 0.250000 0.000000 -0.750000
v -0.250000 0.000000 0.750000
v 0.000000 0.000000 0.750000
v -0.750000 0.000000 0.000000
v -0.750000 0.000000 -0.250000
v -0.500000 0.000000 -0.250000
v -0.750000 0.000000 -0.500000
v -0.500000 0.000000 0.250000
v -0.250000 0.000000 0.500000
v -0.250000 0.000000 0.250000
v -0.750000 0.000000 0.750000
v -0.500000 0.000000 0.750000
v -0.750000 0.000000 0.500000
v 0.500000 0.000000 -0.750000
v 0.750000 0.000000 -0.500000
v 0.750000 0.000000 -0.750000
v 0.250000 0.000000 -0.500000
v 0.250000 0.000000 -0.250000
v 0.500000 0.000000 -0.250000
v -0.500000 0.000000 -0.750000
v -0.250000 0.000000 -0.500000
v -0.250000 0.000000 -0.750000
v 0.500000 0.000000 0.250000
v 0.750000 0.000000 0.500000
v 0.750000 0.000000 0.250000
v 0.250000 0.000000 0.750000
v 0.500000 0.000000 0.750000
v 0.250000 0.000000 0.500000
vn 0.0000 1.0000 0.0000
usemtl None
s off
f 2//1 30//1 27//1
f 2//1 49//1 30//1
f 9//1 52//1 35//1
f 9//1 53//1 52//1
f 7//1 44//1 38//1
f 6//1 55//1 32//1
f 6//1 56//1 55//1
f 9//1 35//1 41//1
f 25//1 58//1 57//1
f 25//1 59//1 58//1
f 19//1 51//1 60//1
f 23//1 61//1 39//1
f 23//1 62//1 61//1
f 24//1 40//1 63//1
f 16//1 64//1 48//1
f 16//1 65//1 64//1
f 23//1 39//1 66//1
f 22//1 67//1 54//1
f 22//1 68//1 67//1
f 12//1 28//1 69//1
f 20//1 70//1 36//1
f 20//1 71//1 70//1
f 21//1 37//1 72//1
f 19//1 73//1 51//1
f 19//1 74//1 73//1
f 20//1 36//1 75//1
f 14//1 76//1 46//1
f 14//1 77//1 76//1
f 17//1 33//1 78//1
f 11//1 79//1 43//1
f 11//1 80//1 79//1
f 14//1 46//1 81//1
f 81//1 40//1 24//1
f 81//1 46//1 40//1
f 46//1 9//1 40//1
f 79//1 81//1 24//1
f 79//1 80//1 81//1
f 80//1 14//1 81//1
f 43//1 56//1 6//1
f 43//1 79//1 56//1
f 79//1 24//1 56//1
f 78//1 37//1 21//1
f 78//1 33//1 37//1
f 33//1 7//1 37//1
f 76//1 78//1 21//1
f 76//1 77//1 78//1
f 77//1 17//1 78//1
f 46//1 53//1 9//1
f 46//1 76//1 53//1
f 76//1 21//1 53//1
f 75//1 45//1 13//1
f 75//1 36//1 45//1
f 36//1 8//1 45//1
f 73//1 75//1 13//1
f 73//1 74//1 75//1
f 74//1 20//1 75//1
f 51//1 29//1 3//1
f 51//1 73//1 29//1
f 73//1 13//1 29//1
f 72//1 38//1 22//1
f 72//1 37//1 38//1
f 37//1 7//1 38//1
f 70//1 72//1 22//1
f 70//1 71//1 72//1
f 71//1 21//1 72//1
f 36//1 54//1 8//1
f 36//1 70//1 54//1
f 70//1 22//1 54//1
f 69//1 50//1 18//1
f 69//1 28//1 50//1
f 28//1 4//1 50//1
f 67//1 69//1 18//1
f 67//1 68//1 69//1
f 68//1 12//1 69//1
f 54//1 34//1 8//1
f 54//1 67//1 34//1
f 67//1 18//1 34//1
f 66//1 42//1 10//1
f 66//1 39//1 42//1
f 39//1 5//1 42//1
f 64//1 66//1 10//1
f 64//1 65//1 66//1
f 65//1 23//1 66//1
f 48//1 26//1 1//1
f 48//1 64//1 26//1
f 64//1 10//1 26//1
f 63//1 41//1 25//1
f 63//1 40//1 41//1
f 40//1 9//1 41//1
f 61//1 63//1 25//1
f 61//1 62//1 63//1
f 62//1 24//1 63//1
f 39//1 57//1 5//1
f 39//1 61//1 57//1
f 61//1 25//1 57//1
f 60//1 47//1 15//1
f 60//1 51//1 47//1
f 51//1 3//1 47//1
f 58//1 60//1 15//1
f 58//1 59//1 60//1
f 59//1 19//1 60//1
f 57//1 31//1 5//1
f 57//1 58//1 31//1
f 58//1 15//1 31//1
f 41//1 59//1 25//1
f 41//1 35//1 59//1
f 35//1 19//1 59//1
f 55//1 62//1 23//1
f 55//1 56//1 62//1
f 56//1 24//1 62//1
f 32//1 65//1 16//1
f 32//1 55//1 65//1
f 55//1 23//1 65//1
f 38//1 68//1 22//1
f 38//1 44//1 68//1
f 44//1 12//1 68//1
f 52//1 71//1 20//1
f 52//1 53//1 71//1
f 53//1 21//1 71//1
f 35//1 74//1 19//1
f 35//1 52//1 74//1
f 52//1 20//1 74//1
f 30//1 77//1 14//1
f 30//1 49//1 77//1
f 49//1 17//1 77//1
f 27//1 80//1 11//1
f 27//1 30//1 80//1
f 30//1 14//1 80//1
